<?xml version="1.0" encoding="UTF-8" standalone="no"?>
<!-- Created with Inkscape (http://www.inkscape.org/) -->

<svg
   version="1.1"
   id="svg1"
   width="1000"
   height="1000"
   viewBox="0 0 1000 1000"
   sodipodi:docname="logo.svg"
   inkscape:version="1.4.3 (0d15f75, 2025-12-25)"
   inkscape:export-filename="SkelatorFinal.png"
   inkscape:export-xdpi="96"
   inkscape:export-ydpi="96"
   xmlns:inkscape="http://www.inkscape.org/namespaces/inkscape"
   xmlns:sodipodi="http://sodipodi.sourceforge.net/DTD/sodipodi-0.dtd"
   xmlns="http://www.w3.org/2000/svg"
   xmlns:svg="http://www.w3.org/2000/svg">
  <defs
     id="defs1">
    <inkscape:path-effect
       effect="mirror_symmetry"
       start_point="-9464.7741,-2296.2762"
       end_point="-9464.7741,-1484.7385"
       center_point="-9464.7741,-1890.5073"
       id="path-effect14"
       is_visible="true"
       lpeversion="1.2"
       lpesatellites=""
       mode="free"
       discard_orig_path="false"
       fuse_paths="false"
       oposite_fuse="false"
       split_items="false"
       split_open="false"
       link_styles="false" />
  </defs>
  <sodipodi:namedview
     id="namedview1"
     pagecolor="#ffffff"
     bordercolor="#000000"
     borderopacity="0.25"
     inkscape:showpageshadow="2"
     inkscape:pageopacity="0.0"
     inkscape:pagecheckerboard="0"
     inkscape:deskcolor="#d1d1d1"
     inkscape:zoom="0.35355339"
     inkscape:cx="-18.384776"
     inkscape:cy="533.15851"
     inkscape:window-width="1920"
     inkscape:window-height="991"
     inkscape:window-x="-9"
     inkscape:window-y="-9"
     inkscape:window-maximized="1"
     inkscape:current-layer="g1"
     showguides="true" />
  <g
     inkscape:groupmode="layer"
     inkscape:label="Image"
     id="g1">
    <g
       id="g20"
       transform="translate(-3949.2925,5175.2725)">
      <circle
         style="fill:#6782cc;fill-opacity:1;stroke:#1e1645;stroke-width:37.7953;stroke-dasharray:none;stroke-opacity:1"
         id="path1-4-7"
         cx="4449.2925"
         cy="-4675.2725"
         r="471.16199" />
      <path
         id="path18"
         style="fill:#4d4483;fill-opacity:1;stroke:#1e1645;stroke-width:22.6772;stroke-dasharray:none;stroke-opacity:1"
         d="m 4043.6079,-4922.4447 c 0.878,11.7741 9.8507,102.1293 81.7031,168.4727 67.2653,62.1079 142.4828,73.7352 155.9336,71.4609 l -237.7207,237.7207 c 20.1616,34.1629 44.5575,65.6434 72.6075,93.6934 28.05,28.0499 59.5284,52.4437 93.6914,72.6054 l 239.4687,-239.4687 239.4707,239.4687 c 34.163,-20.1617 65.6414,-44.5555 93.6914,-72.6054 28.05,-28.05 52.4458,-59.5305 72.6074,-93.6934 l -237.7207,-237.7207 c 13.4507,2.2743 88.6682,-9.353 155.9336,-71.4609 71.8524,-66.3434 80.8251,-156.6986 81.7031,-168.4727 a 471.16199,471.16199 0 0 0 -405.6855,-231.5488 471.16199,471.16199 0 0 0 -405.6836,231.5488 z" />
    </g>
    <g
       id="g19"
       transform="translate(-2631.6816,4830.6899)">
      <path
         id="rect3-8-18"
         style="fill:#4c4382;fill-opacity:1;stroke:#1e1645;stroke-width:18.8976;stroke-dasharray:none;stroke-opacity:1"
         d="m 2800.1147,-4182.0642 a 68.510223,68.510223 0 0 0 0,96.8874 68.510223,68.510223 0 0 0 58.9496,19.1029 68.510223,68.510223 0 0 0 19.1042,58.9508 68.510223,68.510223 0 0 0 96.8875,0 68.510223,68.510223 0 0 0 8.2851,-86.8567 l 393.0506,-393.0505 a 68.510223,68.510223 0 0 0 86.8567,-8.2852 68.510223,68.510223 0 0 0 0,-96.8874 68.510223,68.510223 0 0 0 -58.8694,-19.1857 68.510223,68.510223 0 0 0 -19.1845,-58.8681 68.510223,68.510223 0 0 0 -96.8874,0 68.510223,68.510223 0 0 0 -8.2865,86.8553 l -393.0506,393.0506 a 68.510223,68.510223 0 0 0 -86.8553,8.2866 z" />
      <rect
         style="fill:#4c4382;fill-opacity:1;stroke:#1e1645;stroke-width:18.3814;stroke-dasharray:none;stroke-opacity:1"
         id="rect3-1-2"
         width="468.42285"
         height="135.71277"
         x="-5516.5615"
         y="785.62738"
         transform="rotate(135)" />
      <path
         id="rect3-8-1-6"
         style="fill:#4c4382;fill-opacity:1;stroke:#1e1645;stroke-width:18.8976;stroke-dasharray:none;stroke-opacity:1"
         d="m 2975.056,-4670.2566 a 68.510223,68.510223 0 0 0 -96.8875,0 68.510223,68.510223 0 0 0 -19.1029,58.9494 68.510223,68.510223 0 0 0 -58.9509,19.1043 68.510223,68.510223 0 0 0 0,96.8875 68.510223,68.510223 0 0 0 86.8568,8.285 l 393.0506,393.0505 a 68.510223,68.510223 0 0 0 8.285,86.8568 68.510223,68.510223 0 0 0 96.8875,0 68.510223,68.510223 0 0 0 19.1857,-58.8694 68.510223,68.510223 0 0 0 58.8681,-19.1844 68.510223,68.510223 0 0 0 0,-96.8875 68.510223,68.510223 0 0 0 -86.8553,-8.2864 l -393.0507,-393.0505 a 68.510223,68.510223 0 0 0 -8.2864,-86.8553 z" />
      <rect
         style="fill:#4c4382;fill-opacity:1;stroke:#1e1645;stroke-width:18.3814;stroke-dasharray:none;stroke-opacity:1"
         id="rect3-1-2-3"
         width="468.42285"
         height="135.71277"
         x="619.2724"
         y="5214.4937"
         transform="rotate(-135)" />
      <circle
         style="fill:#4c4382;fill-opacity:1;stroke:#1e1645;stroke-width:18.8976;stroke-dasharray:none;stroke-opacity:1"
         id="path2-8-9-8"
         cx="-853.48376"
         cy="-5282.3501"
         r="181.605"
         transform="rotate(45)" />
      <circle
         style="fill:#4c4382;fill-opacity:1;stroke:#1e1645;stroke-width:18.8976;stroke-dasharray:none;stroke-opacity:1"
         id="path2-2-0"
         cx="-853.48376"
         cy="-5282.3501"
         r="103.14092"
         transform="rotate(45)" />
    </g>
  </g>
</svg>
